<?xml version="1.0" encoding="utf-8"?>
<!-- Generator: Adobe Illustrator 18.0.0, SVG Export Plug-In . SVG Version: 6.00 Build 0)  -->
<!DOCTYPE svg PUBLIC "-//W3C//DTD SVG 1.1//EN" "http://www.w3.org/Graphics/SVG/1.1/DTD/svg11.dtd">
<svg version="1.1" id="Layer_1" xmlns="http://www.w3.org/2000/svg"  x="0px" y="0px"
	 viewBox="0 0 100 100" enable-background="new 0 0 100 100" xml:space="preserve">
<g>
	<path fill="#BB2328" d="M100,49.9c0-2.4-6.3-3.6-7.3-8.5c-1-4.8,4.4-8.5,3.5-10.6c-0.9-2.2-7.2-1-10-5.1c-2.7-4.1,0.8-9.5-0.9-11.2
		c-1.7-1.7-7.1,1.9-11.2-0.9c-4.1-2.7-2.9-9.1-5.1-10C67,2.9,63.3,8.2,58.5,7.2c-4.8-1-6.1-7.3-8.5-7.3c-2.4,0-3.7,6.3-8.5,7.3
		c-4.8,1-8.5-4.4-10.6-3.5c-2.2,0.9-1,7.2-5.1,10c-4.1,2.7-9.5-0.8-11.2,0.9c-1.7,1.7,1.9,7.1-0.8,11.2c-2.7,4.1-9.1,2.9-10,5.1
		C2.9,33,8.3,36.6,7.3,41.4c-1,4.9-7.3,6.1-7.3,8.5c0,2.4,6.3,3.6,7.3,8.5c1,4.8-4.4,8.5-3.5,10.6c0.9,2.2,7.2,1,10,5.1
		c2.7,4.1-0.8,9.5,0.8,11.2c1.7,1.7,7.1-1.9,11.2,0.9c4.1,2.7,2.9,9.1,5.1,10c2.2,0.9,5.8-4.4,10.6-3.5c4.8,1,6.1,7.3,8.5,7.3
		c2.4,0,3.7-6.3,8.5-7.3c4.8-1,8.5,4.4,10.6,3.5c2.2-0.9,1-7.2,5.1-10c4.1-2.7,9.5,0.8,11.2-0.9c1.7-1.7-1.9-7.1,0.9-11.2
		c2.7-4.1,9.1-2.9,10-5.1c0.9-2.2-4.4-5.8-3.5-10.6C93.7,53.6,100,52.3,100,49.9z"/>
</g>
</svg>
